<?xml version="1.0" encoding="UTF-8" standalone="no"?>
<!-- Created with Inkscape (http://www.inkscape.org/) -->

<svg
   xmlns:osb="http://www.openswatchbook.org/uri/2009/osb"
   xmlns:dc="http://purl.org/dc/elements/1.1/"
   xmlns:cc="http://creativecommons.org/ns#"
   xmlns:rdf="http://www.w3.org/1999/02/22-rdf-syntax-ns#"
   xmlns:svg="http://www.w3.org/2000/svg"
   xmlns="http://www.w3.org/2000/svg"
   xmlns:sodipodi="http://sodipodi.sourceforge.net/DTD/sodipodi-0.dtd"
   xmlns:inkscape="http://www.inkscape.org/namespaces/inkscape"
   width="200"
   height="80"
   id="svg3854"
   version="1.1"
   inkscape:version="0.48.4 r9939"
   sodipodi:docname="sar-status-text.svg"
   inkscape:export-filename="/home/kennethg/src/git/rescue-me/src/img/rescueme.png"
   inkscape:export-xdpi="363.22"
   inkscape:export-ydpi="363.22"
   viewBox="0 0 139.81253 145.56867"
   preserveAspectRatio="xMidYMid meet">
  <defs
     id="defs3856">
    <linearGradient
       id="linearGradient4374"
       osb:paint="solid">
      <stop
         style="stop-color:#000000;stop-opacity:1;"
         offset="0"
         id="stop4376" />
    </linearGradient>
  </defs>
  <sodipodi:namedview
     id="base"
     pagecolor="#ffffff"
     bordercolor="#666666"
     borderopacity="1.0"
     inkscape:pageopacity="0.0"
     inkscape:pageshadow="2"
     inkscape:zoom="5.713423"
     inkscape:cx="60.395078"
     inkscape:cy="21.983707"
     inkscape:current-layer="layer1"
     showgrid="true"
     inkscape:document-units="px"
     inkscape:grid-bbox="true"
     inkscape:window-width="1855"
     inkscape:window-height="1176"
     inkscape:window-x="65"
     inkscape:window-y="24"
     inkscape:window-maximized="1"
     fit-margin-top="0"
     fit-margin-left="0"
     fit-margin-right="0"
     fit-margin-bottom="0"
     borderlayer="false"
     showguides="true"
     inkscape:guide-bbox="true" />
  <metadata
     id="metadata3859">
    <rdf:RDF>
      <cc:Work
         rdf:about="">
        <dc:format>image/svg+xml</dc:format>
        <dc:type
           rdf:resource="http://purl.org/dc/dcmitype/StillImage" />
        <dc:title />
      </cc:Work>
    </rdf:RDF>
  </metadata>
  <g
     id="layer1"
     inkscape:label="Layer 1"
     inkscape:groupmode="layer"
     transform="translate(43.42737,60.506653)">
    <g
       id="g4172"
       clip-path="none"
       transform="matrix(2.121639,-0.41762628,0.41787995,2.2947012,-20.687252,-5.8186958)">
      <path
         sodipodi:nodetypes="cccsccsccccccsccsccc"
         inkscape:connector-curvature="0"
         d="m -23.183271,-26.358724 c -1.414903,-0.415768 -2.857825,0.357307 -3.227502,1.7292 -0.383476,1.370589 0.453167,2.813511 1.871387,3.227502 7.455666,2.196342 13.686071,7.07074 17.5538599,13.7413542 3.875482,6.6838828 4.915213,14.3479841 2.933305,21.5920028 -0.379629,1.377224 0.457014,2.820146 1.875234,3.234137 0.702209,0.206344 1.41487503,0.115803 1.99867903,-0.196982 C 0.40549499,16.655706 0.86706899,16.117124 1.043881,15.439827 3.3942679,6.8593373 2.1620159,-2.2015105 -2.4212471,-10.106072 -6.9896511,-17.99251 -14.364242,-23.775518 -23.183271,-26.358724 z m -2.882269,10.534902 c -1.412979,-0.41245 -2.855902,0.360625 -3.23082,1.730977 -0.372994,1.37367 0.463649,2.816592 1.875234,3.234137 4.557207,1.3363782 8.369434,4.3196322 10.735113,8.3996201 2.36568,4.0799878 3.004006,8.7724181 1.791446,13.2044129 -0.371071,1.376986 0.463649,2.816592 1.873311,3.23082 0.709904,0.219612 1.423433,0.115564 1.997285,-0.191888 0.583803,-0.312785 1.0511483,-0.841415 1.2235833,-1.533758 1.5763276,-5.7615932 0.7559606,-11.84769064 -2.3194223,-17.1516747 -3.072064,-5.3057623 -8.024101,-9.1825823 -13.94573,-10.9226463 z"
         id="path3327"
         clip-path="none" />
    </g>
    <g
       id="g3329"
       transform="matrix(6.9792155,0,0,6.9792155,-209.72265,-79.935943)" />
    <g
       id="g3331"
       transform="matrix(6.9792155,0,0,6.9792155,-209.72265,-79.935943)" />
    <g
       id="g3333"
       transform="matrix(6.9792155,0,0,6.9792155,-209.72265,-79.935943)" />
    <g
       id="g3335"
       transform="matrix(6.9792155,0,0,6.9792155,-209.72265,-79.935943)" />
    <g
       id="g3337"
       transform="matrix(6.9792155,0,0,6.9792155,-209.72265,-79.935943)" />
    <g
       id="g3339"
       transform="matrix(6.9792155,0,0,6.9792155,-209.72265,-79.935943)" />
    <g
       id="g3341"
       transform="matrix(6.9792155,0,0,6.9792155,-209.72265,-79.935943)" />
    <g
       id="g3343"
       transform="matrix(6.9792155,0,0,6.9792155,-209.72265,-79.935943)" />
    <g
       id="g3345"
       transform="matrix(6.9792155,0,0,6.9792155,-209.72265,-79.935943)" />
    <g
       id="g3347"
       transform="matrix(6.9792155,0,0,6.9792155,-209.72265,-79.935943)" />
    <g
       id="g3349"
       transform="matrix(6.9792155,0,0,6.9792155,-209.72265,-79.935943)" />
    <g
       id="g3351"
       transform="matrix(6.9792155,0,0,6.9792155,-209.72265,-79.935943)" />
    <g
       id="g3353"
       transform="matrix(6.9792155,0,0,6.9792155,-209.72265,-79.935943)" />
    <g
       id="g3355"
       transform="matrix(6.9792155,0,0,6.9792155,-209.72265,-79.935943)" />
    <g
       id="g3357"
       transform="matrix(6.9792155,0,0,6.9792155,-209.72265,-79.935943)" />
    <path
       inkscape:connector-curvature="0"
       d="M -70.825776,23.370275 V 6.9381438 c 0,-3.485607 -2.190951,-5.97532155 -5.776142,-6.37367455 -0.59754,-0.09965 -1.09548,-0.09965 -1.693008,-0.199198 -2.290547,-0.298738 -4.381905,-0.497947 -6.373679,-0.995886 -7.469155,-1.69301505 -14.639536,-4.97944005 -22.606635,-10.55641025 -1.19507,-0.995878 -2.48973,-1.792598 -4.28232,-1.792598 -1.89218,0 -3.08726,0.89631 -4.38191,1.693013 -10.65598,7.3695592 -20.21651,11.05434825 -30.17537,11.65188125 -2.88807,0.09966 -6.37368,1.39423295 -6.37368,6.77202555 0,3.2864272 0,6.5728612 0,9.8592862 0,6.473266 0,13.245303 0,19.917744 0,2.58931 0.29876,5.377793 0.99589,8.365446 1.49383,6.572861 4.87985,12.54819 10.5564,18.224735 6.97121,7.07081 15.73502,12.54818 26.88896,16.73091 0.0997,0 0.0997,0 0.1992,0.0996 0.69712,0.19919 1.49383,0.39838 2.19094,0.39838 h 0 c 0.99589,0 1.99178,-0.1992 2.88808,-0.59753 0.8963,-0.39836 1.79259,-0.79671 2.78849,-1.19507 2.29053,-0.99588 4.78026,-2.09137 7.170374,-3.28642 8.863399,-4.68068 15.63543,-10.25765 20.714457,-17.12927 4.481493,-5.875735 6.871614,-12.149818 7.170387,-18.722678 0.199195,-4.381904 0.199195,-8.863397 0.199195,-13.245298 -0.09965,-1.095492 -0.09965,-2.091381 -0.09965,-3.186848 z m -9.062569,16.033793 c -0.199205,4.780255 -1.991782,9.261745 -5.377788,13.743234 -4.282319,5.776146 -10.058464,10.556406 -17.627197,14.539976 -2.19096,1.09545 -4.4815,2.09133 -6.67245,2.98764 -0.69713,0.29875 -1.39424,0.59754 -2.09137,0.89629 -9.46092,-3.68477 -16.93008,-8.36544 -22.80582,-14.241175 -4.48149,-4.581082 -7.07079,-9.062576 -8.26585,-13.942423 -0.59754,-2.489715 -0.79671,-4.581076 -0.79671,-6.572852 -0.0996,-6.572863 0,-13.344887 0,-19.818157 0,-2.589304 0,-5.278197 0,-7.8675022 10.65598,-0.995894 20.91362,-5.079022 31.96797,-12.5481786 8.66423,5.9753206 16.63132,9.5605186 24.996771,11.4526996 2.290532,0.497941 4.680662,0.796708 6.871625,1.095479 V 23.370275 c 0,1.095482 0,2.190957 0,3.286432 0,4.182726 0,8.465033 -0.199199,12.747361 z M -106.6777,52.350596 c 0.0997,2.68889 -2.29054,4.979437 -4.97945,4.979437 -2.78848,0 -5.07902,-2.290547 -5.07902,-5.079034 0,-2.788488 2.29054,-5.079019 5.07902,-5.079019 2.78849,0 5.17862,2.290531 4.97945,5.178616 z m -0.29875,-37.943299 c 0.29875,0.796714 0.49794,1.593424 0.49794,2.489719 -0.0997,2.489717 -0.29875,5.079026 -0.49794,7.568744 -0.19914,3.883958 -0.49795,7.867506 -0.69712,11.751468 -0.0997,1.294651 -0.0997,2.390125 -0.0997,3.684774 -0.0997,2.091368 -1.69301,3.684785 -3.78437,3.684785 -2.09136,0 -3.68479,-1.493826 -3.78437,-3.585187 -0.29875,-6.07491 -0.69713,-12.149824 -0.99589,-18.224739 -0.0996,-1.593415 -0.19914,-3.186838 -0.29875,-4.87984 0,-2.688903 1.49383,-4.879845 3.88396,-5.576979 2.29055,-0.398364 4.78026,0.796714 5.77615,3.087255 z"
       id="path4177" />
    <g
       id="g3038"
       transform="matrix(1.9989077,0,0,1.9989077,-180.65457,-51.798859)">
      <text
         sodipodi:linespacing="125%"
         id="text3030"
         y="39.539192"
         x="91.822495"
         style="font-size:53.24000168px;font-style:normal;font-weight:normal;line-height:125%;letter-spacing:0px;word-spacing:0px;fill:#000000;fill-opacity:1;stroke:none;font-family:Sans"
         xml:space="preserve"><tspan
           style="font-style:normal;font-variant:normal;font-weight:bold;font-stretch:normal;font-family:Open Sans;-inkscape-font-specification:Open Sans Bold"
           y="39.539192"
           x="91.822495"
           id="tspan3032"
           sodipodi:role="line">SAR</tspan></text>
      <text
         sodipodi:linespacing="125%"
         id="text3034"
         y="62.754375"
         x="92.283546"
         style="font-size:27.17902756px;font-style:normal;font-weight:normal;line-height:125%;letter-spacing:0px;word-spacing:0px;fill:#000000;fill-opacity:1;stroke:none;font-family:Sans"
         xml:space="preserve"><tspan
           y="62.754375"
           x="92.283546"
           id="tspan3036"
           sodipodi:role="line">STATUS</tspan></text>
    </g>
  </g>
</svg>
