<?xml version="1.0" encoding="UTF-8" standalone="no"?>
<!-- Created with Inkscape (http://www.inkscape.org/) -->

<svg
   xmlns:osb="http://www.openswatchbook.org/uri/2009/osb"
   xmlns:dc="http://purl.org/dc/elements/1.1/"
   xmlns:cc="http://creativecommons.org/ns#"
   xmlns:rdf="http://www.w3.org/1999/02/22-rdf-syntax-ns#"
   xmlns:svg="http://www.w3.org/2000/svg"
   xmlns="http://www.w3.org/2000/svg"
   xmlns:sodipodi="http://sodipodi.sourceforge.net/DTD/sodipodi-0.dtd"
   xmlns:inkscape="http://www.inkscape.org/namespaces/inkscape"
   width="103"
   height="40"
   id="svg3854"
   version="1.1"
   inkscape:version="0.48.4 r9939"
   sodipodi:docname="sar-status-text.svg"
   inkscape:export-filename="/home/kennethg/src/git/rescue-me/src/img/rescueme.png"
   inkscape:export-xdpi="363.22"
   inkscape:export-ydpi="363.22"
   viewBox="0 0 100 100"
   preserveAspectRatio="xMidYMid">
  <defs
     id="defs3856">
    <linearGradient
       id="linearGradient4374"
       osb:paint="solid">
      <stop
         style="stop-color:#000000;stop-opacity:1;"
         offset="0"
         id="stop4376" />
    </linearGradient>
  </defs>
  <sodipodi:namedview
     id="base"
     pagecolor="#ffffff"
     bordercolor="#666666"
     borderopacity="1.0"
     inkscape:pageopacity="0.0"
     inkscape:pageshadow="2"
     inkscape:zoom="5.713423"
     inkscape:cx="55.333572"
     inkscape:cy="-6.4996502"
     inkscape:current-layer="layer1"
     showgrid="true"
     inkscape:document-units="px"
     inkscape:grid-bbox="true"
     inkscape:window-width="1855"
     inkscape:window-height="1176"
     inkscape:window-x="65"
     inkscape:window-y="24"
     inkscape:window-maximized="1"
     fit-margin-top="0"
     fit-margin-left="0"
     fit-margin-right="0"
     fit-margin-bottom="0"
     borderlayer="false"
     showguides="true"
     inkscape:guide-bbox="true" />
  <metadata
     id="metadata3859">
    <rdf:RDF>
      <cc:Work
         rdf:about="">
        <dc:format>image/svg+xml</dc:format>
        <dc:type
           rdf:resource="http://purl.org/dc/dcmitype/StillImage" />
        <dc:title />
      </cc:Work>
    </rdf:RDF>
  </metadata>
  <g
     id="layer1"
     inkscape:label="Layer 1"
     inkscape:groupmode="layer"
     transform="translate(-6.8570774,-3.7537542)">
    <g
       id="g4172"
       clip-path="none"
       transform="matrix(1.4733604,-0.29001825,0.29019441,1.5935425,23.987937,41.358128)">
      <path
         sodipodi:nodetypes="cccsccsccccccsccsccc"
         inkscape:connector-curvature="0"
         d="m -23.183271,-26.358724 c -1.414903,-0.415768 -2.857825,0.357307 -3.227502,1.7292 -0.383476,1.370589 0.453167,2.813511 1.871387,3.227502 7.455666,2.196342 13.686071,7.07074 17.5538599,13.7413542 3.875482,6.6838828 4.915213,14.3479841 2.933305,21.5920028 -0.379629,1.377224 0.457014,2.820146 1.875234,3.234137 0.702209,0.206344 1.41487503,0.115803 1.99867903,-0.196982 C 0.40549499,16.655706 0.86706899,16.117124 1.043881,15.439827 3.3942679,6.8593373 2.1620159,-2.2015105 -2.4212471,-10.106072 -6.9896511,-17.99251 -14.364242,-23.775518 -23.183271,-26.358724 z m -2.882269,10.534902 c -1.412979,-0.41245 -2.855902,0.360625 -3.23082,1.730977 -0.372994,1.37367 0.463649,2.816592 1.875234,3.234137 4.557207,1.3363782 8.369434,4.3196322 10.735113,8.3996201 2.36568,4.0799878 3.004006,8.7724181 1.791446,13.2044129 -0.371071,1.376986 0.463649,2.816592 1.873311,3.23082 0.709904,0.219612 1.423433,0.115564 1.997285,-0.191888 0.583803,-0.312785 1.0511483,-0.841415 1.2235833,-1.533758 1.5763276,-5.7615932 0.7559606,-11.84769064 -2.3194223,-17.1516747 -3.072064,-5.3057623 -8.024101,-9.1825823 -13.94573,-10.9226463 z"
         id="path3327"
         clip-path="none" />
    </g>
    <g
       id="g3329"
       transform="matrix(4.8466774,0,0,4.8466774,-107.28664,-10.112181)" />
    <g
       id="g3331"
       transform="matrix(4.8466774,0,0,4.8466774,-107.28664,-10.112181)" />
    <g
       id="g3333"
       transform="matrix(4.8466774,0,0,4.8466774,-107.28664,-10.112181)" />
    <g
       id="g3335"
       transform="matrix(4.8466774,0,0,4.8466774,-107.28664,-10.112181)" />
    <g
       id="g3337"
       transform="matrix(4.8466774,0,0,4.8466774,-107.28664,-10.112181)" />
    <g
       id="g3339"
       transform="matrix(4.8466774,0,0,4.8466774,-107.28664,-10.112181)" />
    <g
       id="g3341"
       transform="matrix(4.8466774,0,0,4.8466774,-107.28664,-10.112181)" />
    <g
       id="g3343"
       transform="matrix(4.8466774,0,0,4.8466774,-107.28664,-10.112181)" />
    <g
       id="g3345"
       transform="matrix(4.8466774,0,0,4.8466774,-107.28664,-10.112181)" />
    <g
       id="g3347"
       transform="matrix(4.8466774,0,0,4.8466774,-107.28664,-10.112181)" />
    <g
       id="g3349"
       transform="matrix(4.8466774,0,0,4.8466774,-107.28664,-10.112181)" />
    <g
       id="g3351"
       transform="matrix(4.8466774,0,0,4.8466774,-107.28664,-10.112181)" />
    <g
       id="g3353"
       transform="matrix(4.8466774,0,0,4.8466774,-107.28664,-10.112181)" />
    <g
       id="g3355"
       transform="matrix(4.8466774,0,0,4.8466774,-107.28664,-10.112181)" />
    <g
       id="g3357"
       transform="matrix(4.8466774,0,0,4.8466774,-107.28664,-10.112181)" />
    <path
       inkscape:connector-curvature="0"
       d="M -10.830482,61.628247 V 50.217044 c 0,-2.42056 -1.521494,-4.149529 -4.01121,-4.426163 -0.414958,-0.0692 -0.76075,-0.0692 -1.1757,-0.138332 -1.590657,-0.207456 -3.042989,-0.345796 -4.426166,-0.691587 -5.186913,-1.175705 -10.166344,-3.457944 -15.699055,-7.33084 -0.829905,-0.691583 -1.728973,-1.24486 -2.973832,-1.24486 -1.314014,0 -2.143926,0.622437 -3.04299,1.175703 -7.399988,5.117749 -14.039243,7.676631 -20.955119,8.091584 -2.005603,0.06921 -4.426164,0.968218 -4.426164,4.702796 0,2.282241 0,4.564487 0,6.846727 0,4.495323 0,9.198126 0,13.831766 0,1.798131 0.207474,3.734578 0.691587,5.809337 1.037383,4.564488 3.388785,8.714022 7.330836,12.65607 4.841118,4.910277 10.927094,8.714012 18.672885,11.618685 0.06921,0 0.06921,0 0.138334,0.0692 0.48411,0.13833 1.03738,0.27665 1.521483,0.27665 h 0 c 0.691593,0 1.383186,-0.13833 2.005617,-0.41495 0.622425,-0.27664 1.244854,-0.55327 1.936447,-0.82991 1.590651,-0.691581 3.319626,-1.45234 4.979429,-2.28224 6.155138,-3.250464 10.857937,-7.123362 14.38504,-11.895323 3.112147,-4.08037 4.771954,-8.437373 4.979435,-13.001859 0.13833,-3.042989 0.13833,-6.155137 0.13833,-9.198123 -0.0692,-0.760758 -0.0692,-1.452348 -0.0692,-2.213089 z m -6.293451,11.134577 c -0.138336,3.319622 -1.383181,6.431769 -3.734575,9.543914 -2.973832,4.01121 -6.985044,7.330834 -12.241112,10.097198 -1.521499,0.760738 -3.112148,1.452324 -4.633646,2.074758 -0.484112,0.207464 -0.968221,0.414955 -1.452334,0.622425 -6.570088,-2.558874 -11.757001,-5.809336 -15.837375,-9.889707 -3.112144,-3.181307 -4.910272,-6.293456 -5.740176,-9.682239 -0.414953,-1.728969 -0.553272,-3.181303 -0.553272,-4.56448 -0.06918,-4.564489 0,-9.267283 0,-13.762609 0,-1.798128 0,-3.665415 0,-5.463543 7.39999,-0.691593 14.523349,-3.527098 22.199978,-8.714013 6.016825,4.149528 11.54953,6.639249 17.358871,7.953264 1.590647,0.345792 3.25046,0.553269 4.771961,0.760749 v 9.889706 c 0,0.760751 0,1.521497 0,2.282244 0,2.90467 0,5.878494 -0.138332,8.852333 z m -18.603722,8.990645 c 0.06921,1.867285 -1.590651,3.457943 -3.457945,3.457943 -1.936447,0 -3.527103,-1.590658 -3.527103,-3.527107 0,-1.93645 1.590656,-3.527097 3.527103,-3.527097 1.93645,0 3.596259,1.590647 3.457945,3.596261 z m -0.207463,-26.349513 c 0.207463,0.553274 0.345793,1.106545 0.345793,1.728972 -0.0692,1.72897 -0.207463,3.527101 -0.345793,5.256072 -0.13829,2.697193 -0.345795,5.463545 -0.484113,8.160741 -0.06921,0.899063 -0.06921,1.659809 -0.06921,2.558871 -0.06921,1.452339 -1.1757,2.558878 -2.628033,2.558878 -1.452334,0 -2.558881,-1.037379 -2.628037,-2.489713 -0.207463,-4.218688 -0.484114,-8.437378 -0.69159,-12.656068 -0.0692,-1.106538 -0.13829,-2.213082 -0.207462,-3.388778 0,-1.867293 1.037379,-3.388781 2.697197,-3.872902 1.590656,-0.276641 3.31962,0.553274 4.011211,2.143927 z"
       id="path4177" />
    <g
       id="g3038"
       transform="matrix(1.3881303,0,0,1.3881303,-87.100476,9.4274592)">
      <text
         sodipodi:linespacing="125%"
         id="text3030"
         y="39.539192"
         x="91.822495"
         style="font-size:53.24000168px;font-style:normal;font-weight:normal;line-height:125%;letter-spacing:0px;word-spacing:0px;fill:#000000;fill-opacity:1;stroke:none;font-family:Sans"
         xml:space="preserve"><tspan
           style="font-style:normal;font-variant:normal;font-weight:bold;font-stretch:normal;font-family:Open Sans;-inkscape-font-specification:Open Sans Bold"
           y="39.539192"
           x="91.822495"
           id="tspan3032"
           sodipodi:role="line">SAR</tspan></text>
      <text
         sodipodi:linespacing="125%"
         id="text3034"
         y="62.754375"
         x="92.283546"
         style="font-size:27.17902756px;font-style:normal;font-weight:normal;line-height:125%;letter-spacing:0px;word-spacing:0px;fill:#000000;fill-opacity:1;stroke:none;font-family:Sans"
         xml:space="preserve"><tspan
           y="62.754375"
           x="92.283546"
           id="tspan3036"
           sodipodi:role="line">STATUS</tspan></text>
    </g>
  </g>
</svg>
